<?xml version="1.0" encoding="UTF-8"?>
<!DOCTYPE svg PUBLIC "-//W3C//DTD SVG 1.1//EN" "http://www.w3.org/Graphics/SVG/1.1/DTD/svg11.dtd">
<svg xmlns="http://www.w3.org/2000/svg" version="1.1" width="597px" height="188px" style="shape-rendering:geometricPrecision; text-rendering:geometricPrecision; image-rendering:optimizeQuality; fill-rule:evenodd; clip-rule:evenodd" xmlns:xlink="http://www.w3.org/1999/xlink">
<g><path style="opacity:1" fill="#fefefe" d="M -0.5,-0.5 C 198.5,-0.5 397.5,-0.5 596.5,-0.5C 596.5,62.1667 596.5,124.833 596.5,187.5C 397.5,187.5 198.5,187.5 -0.5,187.5C -0.5,139.833 -0.5,92.1667 -0.5,44.5C 4.6694,49.7785 9.83607,49.7785 15,44.5C 15.3333,43.5 15.6667,42.5 16,41.5C 16.8041,44.1459 18.3041,46.1459 20.5,47.5C 17.1469,47.3453 16.8136,48.0119 19.5,49.5C 37.4738,57.8192 55.4738,66.1526 73.5,74.5C 74.498,65.8589 74.8314,57.1922 74.5,48.5C 70.3656,47.5151 66.0323,47.1818 61.5,47.5C 61.8967,42.0414 61.3967,36.7081 60,31.5C 57.3025,29.327 54.4692,28.9937 51.5,30.5C 45.8791,29.6463 40.2124,29.313 34.5,29.5C 34.6621,31.5273 34.4955,33.5273 34,35.5C 33.3147,32.9427 31.8147,31.1094 29.5,30C 23.3151,27.9976 18.8151,29.8309 16,35.5C 15.7006,32.5312 14.2006,31.0312 11.5,31C 13.607,32.2635 14.607,34.0968 14.5,36.5C 11.7607,36.2934 9.4274,35.2934 7.5,33.5C 6.55805,33.6082 5.72472,33.9415 5,34.5C 4.33333,37.1667 4.33333,39.8333 5,42.5C 5.72472,43.0585 6.55805,43.3918 7.5,43.5C 9.4274,41.7066 11.7607,40.7066 14.5,40.5C 14.0348,44.6294 11.7015,46.6294 7.5,46.5C 3.79346,46.454 1.1268,44.7874 -0.5,41.5C -0.5,27.5 -0.5,13.5 -0.5,-0.5 Z"/></g>
<g><path style="opacity:1" fill="#9be2f9" d="M 146.5,75.5 C 146.167,75.5 145.833,75.5 145.5,75.5C 145.83,56.9924 145.497,38.6591 144.5,20.5C 144.987,19.5266 145.487,18.5266 146,17.5C 146.5,36.8305 146.667,56.1638 146.5,75.5 Z"/></g>
<g><path style="opacity:1" fill="#44c7f3" d="M 117.5,39.5 C 110.646,39.824 103.979,39.4907 97.5,38.5C 111.956,31.6026 126.289,24.7692 140.5,18C 132.636,25.033 124.969,32.1997 117.5,39.5 Z"/></g>
<g><path style="opacity:1" fill="#43c7f3" d="M 119.5,70.5 C 118.506,61.0144 118.173,51.3478 118.5,41.5C 126.772,33.7297 134.938,25.7297 143,17.5C 143.167,17.8333 143.333,18.1667 143.5,18.5C 134.941,35.6155 126.941,52.9488 119.5,70.5 Z"/></g>
<g><path style="opacity:1" fill="#3cc5f3" d="M 144.5,20.5 C 145.497,38.6591 145.83,56.9924 145.5,75.5C 136.651,75.8264 127.984,75.493 119.5,74.5C 127.836,56.4955 136.169,38.4955 144.5,20.5 Z"/></g>
<g><path style="opacity:1" fill="#ededed" d="M 535.5,23.5 C 539.514,23.3345 543.514,23.5012 547.5,24C 549.044,24.2896 550.377,24.9563 551.5,26C 546.587,25.6127 541.587,25.446 536.5,25.5C 536.5,32.5 536.5,39.5 536.5,46.5C 551.125,48.7117 556.958,42.7117 554,28.5C 555.381,30.6349 556.381,32.9682 557,35.5C 557.556,33.4049 558.056,33.2382 558.5,35C 557.591,37.8234 557.424,40.6568 558,43.5C 557.333,42.1667 556.667,40.8333 556,39.5C 554.923,42.913 552.756,45.413 549.5,47C 544.845,47.4992 540.179,47.6658 535.5,47.5C 535.5,39.5 535.5,31.5 535.5,23.5 Z"/></g>
<g><path style="opacity:1" fill="#f6f6f6" d="M 270.5,22.5 C 275.328,22.3852 276.661,24.5519 274.5,29C 276.046,30.4396 276.879,32.2729 277,34.5C 277.785,32.714 278.951,31.214 280.5,30C 285.155,29.5008 289.821,29.3342 294.5,29.5C 294.666,36.5079 294.5,43.5079 294,50.5C 289.11,55.288 283.943,55.6214 278.5,51.5C 277.754,50.2638 277.421,48.9305 277.5,47.5C 278.552,47.6495 279.552,47.4828 280.5,47C 278.951,45.786 277.785,44.286 277,42.5C 276.506,44.1341 276.34,45.8008 276.5,47.5C 273.833,47.5 271.167,47.5 268.5,47.5C 268.649,46.448 268.483,45.448 268,44.5C 262.001,50.1125 256.334,49.7792 251,43.5C 246.14,49.7301 240.806,50.0635 235,44.5C 234.048,38.7367 232.714,38.4034 231,43.5C 229.786,45.0488 228.286,46.2155 226.5,47C 221.845,47.4992 217.179,47.6658 212.5,47.5C 212.5,39.5 212.5,31.5 212.5,23.5C 216.514,23.3345 220.514,23.5012 224.5,24C 226.044,24.2896 227.377,24.9563 228.5,26C 223.587,25.6127 218.587,25.446 213.5,25.5C 213.5,32.5 213.5,39.5 213.5,46.5C 228.069,48.766 233.903,42.766 231,28.5C 232.185,30.3772 233.185,32.3772 234,34.5C 239.72,26.6952 245.387,26.6952 251,34.5C 254.254,29.7773 258.754,28.2773 264.5,30C 260.767,30.0655 257.267,30.8989 254,32.5C 253.294,38.6044 256.127,41.2711 262.5,40.5C 262.5,41.5 262.5,42.5 262.5,43.5C 259.159,42.9947 255.826,42.8281 252.5,43C 257.193,47.4478 262.026,47.6144 267,43.5C 267.624,41.5355 267.124,39.8689 265.5,38.5C 262.904,37.5178 260.238,36.8511 257.5,36.5C 257.5,35.5 257.5,34.5 257.5,33.5C 260.564,33.9275 263.564,34.5942 266.5,35.5C 266.351,34.448 266.517,33.448 267,32.5C 267.333,32.8333 267.667,33.1667 268,33.5C 268.199,31.5975 269.033,30.0975 270.5,29C 267.939,26.8441 267.939,24.6774 270.5,22.5 Z"/></g>
<g><path style="opacity:1" fill="#ececec" d="M 296.5,29.5 C 301.179,29.3342 305.845,29.5008 310.5,30C 311,30.5 311.5,31 312,31.5C 313.397,36.7081 313.897,42.0414 313.5,47.5C 311.167,47.5 308.833,47.5 306.5,47.5C 306.5,43.5 306.5,39.5 306.5,35.5C 305.5,35.5 304.5,35.5 303.5,35.5C 303.5,39.5 303.5,43.5 303.5,47.5C 301.167,47.5 298.833,47.5 296.5,47.5C 296.5,41.5 296.5,35.5 296.5,29.5 Z"/></g>
<g><path style="opacity:1" fill="#fefefe" d="M 297.5,30.5 C 299.451,30.2267 300.951,30.8934 302,32.5C 305,29.8333 308,29.8333 311,32.5C 312.379,37.036 312.879,41.7027 312.5,46.5C 311.167,46.5 309.833,46.5 308.5,46.5C 308.665,43.1501 308.498,39.8168 308,36.5C 306.522,33.0069 304.522,32.6736 302,35.5C 301.501,39.1516 301.335,42.8183 301.5,46.5C 300.167,46.5 298.833,46.5 297.5,46.5C 297.5,41.1667 297.5,35.8333 297.5,30.5 Z"/></g>
<g><path style="opacity:1" fill="#f4f4f4" d="M 51.5,30.5 C 54.4692,28.9937 57.3025,29.327 60,31.5C 61.3967,36.7081 61.8967,42.0414 61.5,47.5C 47.8333,47.5 34.1667,47.5 20.5,47.5C 18.3041,46.1459 16.8041,44.1459 16,41.5C 15.6667,42.5 15.3333,43.5 15,44.5C 9.83607,49.7785 4.6694,49.7785 -0.5,44.5C -0.5,43.5 -0.5,42.5 -0.5,41.5C 1.1268,44.7874 3.79346,46.454 7.5,46.5C 11.7015,46.6294 14.0348,44.6294 14.5,40.5C 11.7607,40.7066 9.4274,41.7066 7.5,43.5C 6.55805,43.3918 5.72472,43.0585 5,42.5C 4.33333,39.8333 4.33333,37.1667 5,34.5C 5.72472,33.9415 6.55805,33.6082 7.5,33.5C 9.4274,35.2934 11.7607,36.2934 14.5,36.5C 14.607,34.0968 13.607,32.2635 11.5,31C 14.2006,31.0312 15.7006,32.5312 16,35.5C 18.8151,29.8309 23.3151,27.9976 29.5,30C 31.8147,31.1094 33.3147,32.9427 34,35.5C 34.4955,33.5273 34.6621,31.5273 34.5,29.5C 40.2124,29.313 45.8791,29.6463 51.5,30.5 Z"/></g>
<g><path style="opacity:1" fill="#fefefe" d="M 51.5,30.5 C 54.3646,30.0548 56.8646,30.7215 59,32.5C 59.4992,37.1548 59.6658,41.8215 59.5,46.5C 58.1667,46.5 56.8333,46.5 55.5,46.5C 55.6655,42.4862 55.4988,38.4862 55,34.5C 53.6667,33.1667 52.3333,33.1667 51,34.5C 50.5012,38.4862 50.3345,42.4862 50.5,46.5C 49.1667,46.5 47.8333,46.5 46.5,46.5C 46.6653,42.8183 46.4986,39.1516 46,35.5C 44.3333,32.8333 42.6667,32.8333 41,35.5C 40.5014,39.1516 40.3347,42.8183 40.5,46.5C 39.1667,46.5 37.8333,46.5 36.5,46.5C 36.5,41.1667 36.5,35.8333 36.5,30.5C 38.451,30.2267 39.951,30.8934 41,32.5C 43.7953,29.887 46.6286,29.887 49.5,32.5C 50.5223,32.1445 51.189,31.4778 51.5,30.5 Z"/></g>
<g><path style="opacity:1" fill="#ededed" d="M 578.5,29.5 C 581.518,29.3354 584.518,29.502 587.5,30C 583.767,30.0655 580.267,30.8989 577,32.5C 576.104,35.025 576.604,37.1917 578.5,39C 580.813,39.662 583.146,40.162 585.5,40.5C 585.5,41.5 585.5,42.5 585.5,43.5C 583.116,43.5567 580.782,43.2234 578.5,42.5C 576.128,43.3628 576.128,44.5295 578.5,46C 576.609,46.3087 575.275,45.4753 574.5,43.5C 573.725,45.4753 572.391,46.3087 570.5,46C 572.037,44.8904 572.703,43.3904 572.5,41.5C 570.253,41.9153 568.086,42.5819 566,43.5C 563.244,43.5765 562.077,42.2431 562.5,39.5C 566.167,39.5 569.833,39.5 573.5,39.5C 573.654,35.9746 572.321,33.1413 569.5,31C 571.768,30.9101 573.268,32.0768 574,34.5C 575.059,32.3408 576.559,30.6741 578.5,29.5 Z"/></g>
<g><path style="opacity:1" fill="#eeeeee" d="M 384.5,32.5 C 385.487,37.3054 385.821,42.3054 385.5,47.5C 383.167,47.5 380.833,47.5 378.5,47.5C 377.833,31.5 377.167,31.5 376.5,47.5C 374.167,47.5 371.833,47.5 369.5,47.5C 369.5,43.5 369.5,39.5 369.5,35.5C 368.5,35.5 367.5,35.5 366.5,35.5C 366.5,39.5 366.5,43.5 366.5,47.5C 364.167,47.5 361.833,47.5 359.5,47.5C 359.663,45.1432 359.497,42.8098 359,40.5C 356.499,47.665 351.665,49.8316 344.5,47C 342.993,46.1627 342.493,44.9961 343,43.5C 346.795,46.8034 350.962,47.3034 355.5,45C 358.133,40.7998 358.133,36.6331 355.5,32.5C 356.355,31.707 357.189,32.0403 358,33.5C 358.333,34.5 358.667,35.5 359,36.5C 359.497,34.1902 359.663,31.8568 359.5,29.5C 367.595,29.8213 375.595,29.988 383.5,30C 384.252,30.6708 384.586,31.5041 384.5,32.5 Z"/></g>
<g><path style="opacity:1" fill="#fefefe" d="M 384.5,32.5 C 384.5,37.1667 384.5,41.8333 384.5,46.5C 383.167,46.5 381.833,46.5 380.5,46.5C 380.665,42.8183 380.499,39.1516 380,35.5C 378.333,32.8333 376.667,32.8333 375,35.5C 374.501,39.1516 374.335,42.8183 374.5,46.5C 373.167,46.5 371.833,46.5 370.5,46.5C 370.666,42.4862 370.499,38.4862 370,34.5C 368.667,33.1667 367.333,33.1667 366,34.5C 365.501,38.4862 365.334,42.4862 365.5,46.5C 364.167,46.5 362.833,46.5 361.5,46.5C 361.5,41.1667 361.5,35.8333 361.5,30.5C 364.384,31.3826 367.217,31.3826 370,30.5C 371.812,30.4934 373.312,31.16 374.5,32.5C 377.867,29.8431 381.2,29.8431 384.5,32.5 Z"/></g>
<g><path style="opacity:1" fill="#a7e5f9" d="M 97.5,38.5 C 103.979,39.4907 110.646,39.824 117.5,39.5C 110.345,40.6552 103.012,40.8218 95.5,40C 96.0442,39.2828 96.7109,38.7828 97.5,38.5 Z"/></g>
<g><path style="opacity:1" fill="#c8effb" d="M 118.5,41.5 C 118.173,51.3478 118.506,61.0144 119.5,70.5C 119.44,71.0431 119.107,71.3764 118.5,71.5C 117.177,61.3411 117.177,51.3411 118.5,41.5 Z"/></g>
<g><path style="opacity:1" fill="#85d8f4" d="M 20.5,47.5 C 34.1667,47.5 47.8333,47.5 61.5,47.5C 66.0323,47.1818 70.3656,47.5151 74.5,48.5C 55.9924,48.1698 37.6591,48.5032 19.5,49.5C 16.8136,48.0119 17.1469,47.3453 20.5,47.5 Z"/></g>
<g><path style="opacity:1" fill="#3cc5f3" d="M 19.5,49.5 C 37.6591,48.5032 55.9924,48.1698 74.5,48.5C 74.8314,57.1922 74.498,65.8589 73.5,74.5C 55.4738,66.1526 37.4738,57.8192 19.5,49.5 Z"/></g>
<g><path style="opacity:1" fill="#43c7f3" d="M 69.5,74.5 C 60.0144,75.4938 50.3478,75.8271 40.5,75.5C 32.7297,67.2285 24.7297,59.0618 16.5,51C 16.8333,50.8333 17.1667,50.6667 17.5,50.5C 34.855,58.5117 52.1883,66.5117 69.5,74.5 Z"/></g>
<g><path style="opacity:1" fill="#4ec9f3" d="M 38.5,76.5 C 38.824,83.3543 38.4907,90.021 37.5,96.5C 30.0755,82.3224 23.2422,67.9891 17,53.5C 24.033,61.3638 31.1997,69.0305 38.5,76.5 Z"/></g>
<g><path style="opacity:1" fill="#6dd4f5" d="M 210.5,63.5 C 210.5,73.8333 210.5,84.1667 210.5,94.5C 212.5,94.5 214.5,94.5 216.5,94.5C 214.393,95.4682 212.059,95.8016 209.5,95.5C 209.172,84.6536 209.506,73.9869 210.5,63.5 Z"/></g>
<g><path style="opacity:1" fill="#45c7f3" d="M 210.5,63.5 C 212.833,63.5 215.167,63.5 217.5,63.5C 217.5,67.5 217.5,71.5 217.5,75.5C 221.5,75.5 225.5,75.5 229.5,75.5C 229.5,71.5 229.5,67.5 229.5,63.5C 231.833,63.5 234.167,63.5 236.5,63.5C 236.5,74.1667 236.5,84.8333 236.5,95.5C 234.167,95.5 231.833,95.5 229.5,95.5C 229.5,91.1667 229.5,86.8333 229.5,82.5C 225.5,82.5 221.5,82.5 217.5,82.5C 217.817,86.7016 217.483,90.7016 216.5,94.5C 214.5,94.5 212.5,94.5 210.5,94.5C 210.5,84.1667 210.5,73.8333 210.5,63.5 Z"/></g>
<g><path style="opacity:1" fill="#4ac8f3" d="M 273.5,63.5 C 273.5,65.5 273.5,67.5 273.5,69.5C 268.305,69.1795 263.305,69.5128 258.5,70.5C 258.5,71.8333 258.5,73.1667 258.5,74.5C 262.298,75.4834 266.298,75.8168 270.5,75.5C 270.5,77.5 270.5,79.5 270.5,81.5C 266.298,81.1832 262.298,81.5166 258.5,82.5C 258.5,84.5 258.5,86.5 258.5,88.5C 263.5,88.5 268.5,88.5 273.5,88.5C 273.5,90.8333 273.5,93.1667 273.5,95.5C 265.913,95.8142 258.413,95.4808 251,94.5C 250.5,84.172 250.334,73.8387 250.5,63.5C 258.167,63.5 265.833,63.5 273.5,63.5 Z"/></g>
<g><path style="opacity:1" fill="#45c7f3" d="M 292.5,94.5 C 289.612,95.0102 287.279,94.3435 285.5,92.5C 288.698,82.905 291.698,73.2383 294.5,63.5C 297.572,63.1826 300.572,63.5159 303.5,64.5C 307.247,74.7398 310.58,85.0731 313.5,95.5C 307.257,97.2013 304.257,94.8679 304.5,88.5C 301.15,88.335 297.817,88.5017 294.5,89C 293.536,90.7255 292.869,92.5588 292.5,94.5 Z"/></g>
<g><path style="opacity:1" fill="#46c7f3" d="M 332.5,63.5 C 332.5,71.8333 332.5,80.1667 332.5,88.5C 337.833,88.5 343.167,88.5 348.5,88.5C 348.5,90.8333 348.5,93.1667 348.5,95.5C 340.833,95.5 333.167,95.5 325.5,95.5C 325.5,84.8333 325.5,74.1667 325.5,63.5C 327.833,63.5 330.167,63.5 332.5,63.5 Z"/></g>
<g><path style="opacity:1" fill="#3cc5f3" d="M 369.5,70.5 C 368.508,78.3159 368.174,86.3159 368.5,94.5C 366.5,94.5 364.5,94.5 362.5,94.5C 362.5,86.1667 362.5,77.8333 362.5,69.5C 359.167,69.5 355.833,69.5 352.5,69.5C 352.5,67.5 352.5,65.5 352.5,63.5C 361.167,63.5 369.833,63.5 378.5,63.5C 378.5,65.8333 378.5,68.1667 378.5,70.5C 375.5,70.5 372.5,70.5 369.5,70.5 Z"/></g>
<g><path style="opacity:1" fill="#40c6f3" d="M 390.5,63.5 C 392.833,63.5 395.167,63.5 397.5,63.5C 397.5,67.5 397.5,71.5 397.5,75.5C 401.833,75.5 406.167,75.5 410.5,75.5C 410.5,71.5 410.5,67.5 410.5,63.5C 412.833,63.5 415.167,63.5 417.5,63.5C 417.5,74.1667 417.5,84.8333 417.5,95.5C 415.167,95.5 412.833,95.5 410.5,95.5C 410.5,91.1667 410.5,86.8333 410.5,82.5C 406.167,82.5 401.833,82.5 397.5,82.5C 397.5,86.8333 397.5,91.1667 397.5,95.5C 395.167,95.5 392.833,95.5 390.5,95.5C 390.5,84.8333 390.5,74.1667 390.5,63.5 Z"/></g>
<g><path style="opacity:1" fill="#44c7f3" d="M 429.5,63.5 C 432.187,63.3359 434.854,63.5026 437.5,64C 439.336,67.5178 441.17,71.0178 443,74.5C 444.597,71.2086 446.097,67.8752 447.5,64.5C 450.086,63.52 452.753,63.1866 455.5,63.5C 453.384,69.7998 450.55,75.7998 447,81.5C 446.501,86.1548 446.334,90.8215 446.5,95.5C 444.167,95.5 441.833,95.5 439.5,95.5C 439.666,91.1539 439.499,86.8206 439,82.5C 435.807,76.1136 432.64,69.7802 429.5,63.5 Z"/></g>
<g><path style="opacity:1" fill="#49c8f3" d="M 474.5,63.5 C 474.5,71.8333 474.5,80.1667 474.5,88.5C 479.833,88.5 485.167,88.5 490.5,88.5C 490.5,90.8333 490.5,93.1667 490.5,95.5C 482.833,95.5 475.167,95.5 467.5,95.5C 467.5,84.8333 467.5,74.1667 467.5,63.5C 469.833,63.5 472.167,63.5 474.5,63.5 Z"/></g>
<g><path style="opacity:1" fill="#3ec5f3" d="M 502.5,63.5 C 504.833,63.5 507.167,63.5 509.5,63.5C 509.5,74.1667 509.5,84.8333 509.5,95.5C 507.167,95.5 504.833,95.5 502.5,95.5C 502.5,84.8333 502.5,74.1667 502.5,63.5 Z"/></g>
<g><path style="opacity:1" fill="#87dbf7" d="M 524.5,63.5 C 524.5,73.8333 524.5,84.1667 524.5,94.5C 526.5,94.5 528.5,94.5 530.5,94.5C 530.185,90.6286 530.518,86.9619 531.5,83.5C 531.5,87.5 531.5,91.5 531.5,95.5C 528.833,95.5 526.167,95.5 523.5,95.5C 523.172,84.6536 523.506,73.9869 524.5,63.5 Z"/></g>
<g><path style="opacity:1" fill="#3fc6f3" d="M 524.5,63.5 C 531.833,63.5 539.167,63.5 546.5,63.5C 546.5,65.8333 546.5,68.1667 546.5,70.5C 541.5,70.5 536.5,70.5 531.5,70.5C 531.5,72.5 531.5,74.5 531.5,76.5C 535.298,77.4834 539.298,77.8168 543.5,77.5C 543.5,79.5 543.5,81.5 543.5,83.5C 539.5,83.5 535.5,83.5 531.5,83.5C 530.518,86.9619 530.185,90.6286 530.5,94.5C 528.5,94.5 526.5,94.5 524.5,94.5C 524.5,84.1667 524.5,73.8333 524.5,63.5 Z"/></g>
<g><path style="opacity:1" fill="#99e1f9" d="M 559.5,63.5 C 559.5,73.8333 559.5,84.1667 559.5,94.5C 566.833,94.5 574.167,94.5 581.5,94.5C 574.018,95.492 566.352,95.8254 558.5,95.5C 558.172,84.6536 558.506,73.9869 559.5,63.5 Z"/></g>
<g><path style="opacity:1" fill="#3ec6f3" d="M 559.5,63.5 C 566.833,63.5 574.167,63.5 581.5,63.5C 581.5,65.8333 581.5,68.1667 581.5,70.5C 576.5,70.5 571.5,70.5 566.5,70.5C 566.5,71.8333 566.5,73.1667 566.5,74.5C 570.298,75.4834 574.298,75.8168 578.5,75.5C 578.5,77.5 578.5,79.5 578.5,81.5C 574.298,81.1832 570.298,81.5166 566.5,82.5C 566.5,84.5 566.5,86.5 566.5,88.5C 571.5,88.5 576.5,88.5 581.5,88.5C 581.5,90.5 581.5,92.5 581.5,94.5C 574.167,94.5 566.833,94.5 559.5,94.5C 559.5,84.1667 559.5,73.8333 559.5,63.5 Z"/></g>
<g><path style="opacity:1" fill="#98e0f8" d="M 273.5,63.5 C 274.468,65.6074 274.802,67.9407 274.5,70.5C 269.167,70.5 263.833,70.5 258.5,70.5C 263.305,69.5128 268.305,69.1795 273.5,69.5C 273.5,67.5 273.5,65.5 273.5,63.5 Z"/></g>
<g><path style="opacity:1" fill="#9ce1f8" d="M 352.5,69.5 C 355.833,69.5 359.167,69.5 362.5,69.5C 362.5,77.8333 362.5,86.1667 362.5,94.5C 361.508,86.6841 361.174,78.6841 361.5,70.5C 358.287,70.81 355.287,70.4767 352.5,69.5 Z"/></g>
<g><path style="opacity:1" fill="#74d5f6" d="M 369.5,70.5 C 369.5,78.8333 369.5,87.1667 369.5,95.5C 366.941,95.8016 364.607,95.4682 362.5,94.5C 364.5,94.5 366.5,94.5 368.5,94.5C 368.174,86.3159 368.508,78.3159 369.5,70.5 Z"/></g>
<g><path style="opacity:1" fill="#ace6f9" d="M 258.5,74.5 C 262.833,74.5 267.167,74.5 271.5,74.5C 271.5,77.1667 271.5,79.8333 271.5,82.5C 267.167,82.5 262.833,82.5 258.5,82.5C 262.298,81.5166 266.298,81.1832 270.5,81.5C 270.5,79.5 270.5,77.5 270.5,75.5C 266.298,75.8168 262.298,75.4834 258.5,74.5 Z"/></g>
<g><path style="opacity:1" fill="#afe7fa" d="M 566.5,74.5 C 570.833,74.5 575.167,74.5 579.5,74.5C 579.5,77.1667 579.5,79.8333 579.5,82.5C 575.167,82.5 570.833,82.5 566.5,82.5C 570.298,81.5166 574.298,81.1832 578.5,81.5C 578.5,79.5 578.5,77.5 578.5,75.5C 574.298,75.8168 570.298,75.4834 566.5,74.5 Z"/></g>
<g><path style="opacity:1" fill="#d6f2fc" d="M 69.5,74.5 C 70.0431,74.56 70.3764,74.8933 70.5,75.5C 60.3411,76.8229 50.3411,76.8229 40.5,75.5C 50.3478,75.8271 60.0144,75.4938 69.5,74.5 Z"/></g>
<g><path style="opacity:1" fill="#d7f3fc" d="M 119.5,74.5 C 127.984,75.493 136.651,75.8264 145.5,75.5C 145.833,75.5 146.167,75.5 146.5,75.5C 137.325,76.8222 127.992,76.8222 118.5,75.5C 118.624,74.8933 118.957,74.56 119.5,74.5 Z"/></g>
<g><path style="opacity:1" fill="#ebf9fd" d="M 298.5,74.5 C 300.086,76.0808 301.086,78.0808 301.5,80.5C 299.833,81.8333 298.167,81.8333 296.5,80.5C 297.747,78.677 298.414,76.677 298.5,74.5 Z"/></g>
<g><path style="opacity:1" fill="#95dff8" d="M 531.5,76.5 C 535.833,76.5 540.167,76.5 544.5,76.5C 544.802,79.0593 544.468,81.3926 543.5,83.5C 543.5,81.5 543.5,79.5 543.5,77.5C 539.298,77.8168 535.298,77.4834 531.5,76.5 Z"/></g>
<g><path style="opacity:1" fill="#bbebfb" d="M 38.5,76.5 C 39.6552,83.6549 39.8218,90.9882 39,98.5C 38.2828,97.9558 37.7828,97.2891 37.5,96.5C 38.4907,90.021 38.824,83.3543 38.5,76.5 Z"/></g>
<g><path style="opacity:1" fill="#44c7f3" d="M 103.5,115.5 C 103.5,110.833 103.5,106.167 103.5,101.5C 98.6367,101.181 93.97,101.514 89.5,102.5C 89.5,106.833 89.5,111.167 89.5,115.5C 86.8333,115.5 84.1667,115.5 81.5,115.5C 81.5,104.167 81.5,92.8333 81.5,81.5C 84.1667,81.5 86.8333,81.5 89.5,81.5C 89.5,85.8333 89.5,90.1667 89.5,94.5C 94.1667,94.5 98.8333,94.5 103.5,94.5C 103.5,90.1667 103.5,85.8333 103.5,81.5C 105.833,81.5 108.167,81.5 110.5,81.5C 110.5,92.8333 110.5,104.167 110.5,115.5C 108.167,115.5 105.833,115.5 103.5,115.5 Z"/></g>
<g><path style="opacity:1" fill="#c3eefb" d="M 332.5,63.5 C 330.167,63.5 327.833,63.5 325.5,63.5C 325.5,74.1667 325.5,84.8333 325.5,95.5C 333.167,95.5 340.833,95.5 348.5,95.5C 348.5,93.1667 348.5,90.8333 348.5,88.5C 343.167,88.5 337.833,88.5 332.5,88.5C 332.5,80.1667 332.5,71.8333 332.5,63.5 Z"/></g>
<g><path style="opacity:1" fill="#b7eafa" d="M 474.5,63.5 C 472.167,63.5 469.833,63.5 467.5,63.5C 467.5,74.1667 467.5,84.8333 467.5,95.5C 475.167,95.5 482.833,95.5 490.5,95.5C 490.5,93.1667 490.5,90.8333 490.5,88.5C 485.167,88.5 479.833,88.5 474.5,88.5C 474.5,80.1667 474.5,71.8333 474.5,63.5 Z"/></g>
<g><path style="opacity:1" fill="#a3e3f9" d="M 285.5,92.5 C 287.279,94.3435 289.612,95.0102 292.5,94.5C 290.052,95.4731 287.385,95.8064 284.5,95.5C 284.263,94.209 284.596,93.209 285.5,92.5 Z"/></g>
<g><path style="opacity:1" fill="#95dff8" d="M 155.5,99.5 C 154.51,105.645 154.177,111.978 154.5,118.5C 153.345,111.345 153.178,104.012 154,96.5C 154.513,97.5266 155.013,98.5266 155.5,99.5 Z"/></g>
<g><path style="opacity:1" fill="#45c7f3" d="M 155.5,99.5 C 162.436,113.04 169.103,126.706 175.5,140.5C 172.833,138.167 170.167,135.833 167.5,133.5C 163.563,128.224 159.229,123.224 154.5,118.5C 154.177,111.978 154.51,105.645 155.5,99.5 Z"/></g>
<g><path style="opacity:1" fill="#ade7f9" d="M 89.5,102.5 C 93.97,101.514 98.6367,101.181 103.5,101.5C 103.5,106.167 103.5,110.833 103.5,115.5C 102.515,111.366 102.182,107.032 102.5,102.5C 98.1667,102.5 93.8333,102.5 89.5,102.5 Z"/></g>
<g><path style="opacity:1" fill="#a4e4f9" d="M 349.5,114.5 C 347.167,114.5 344.833,114.5 342.5,114.5C 342.5,119.167 342.5,123.833 342.5,128.5C 341.513,123.695 341.179,118.695 341.5,113.5C 344.385,113.194 347.052,113.527 349.5,114.5 Z"/></g>
<g><path style="opacity:1" fill="#a9e6f9" d="M 371.5,115.5 C 368.713,114.523 365.713,114.19 362.5,114.5C 362.5,119.167 362.5,123.833 362.5,128.5C 361.513,123.695 361.179,118.695 361.5,113.5C 365.226,113.177 368.893,113.511 372.5,114.5C 372.376,115.107 372.043,115.44 371.5,115.5 Z"/></g>
<g><path style="opacity:1" fill="#64cff5" d="M 531.5,113.5 C 534.599,113.092 536.933,114.259 538.5,117C 536.822,116.888 535.155,116.388 533.5,115.5C 531.734,115.434 530.734,116.268 530.5,118C 531.992,119.885 533.992,120.885 536.5,121C 539.671,125.143 538.671,127.643 533.5,128.5C 530.465,128.624 528.965,127.291 529,124.5C 531.135,126.278 533.635,126.945 536.5,126.5C 536.5,125.167 536.5,123.833 536.5,122.5C 531.1,122.929 528.6,120.596 529,115.5C 529.995,114.934 530.828,114.267 531.5,113.5 Z"/></g>
<g><path style="opacity:1" fill="#99def8" d="M 548.5,113.5 C 549.809,115.571 550.475,118.071 550.5,121C 550.167,123.5 549.833,126 549.5,128.5C 548.506,123.544 548.173,118.544 548.5,113.5 Z"/></g>
<g><path style="opacity:1" fill="#5dcef4" d="M 583.5,114.5 C 584.822,114.33 585.989,114.663 587,115.5C 589,118.833 591,122.167 593,125.5C 593.175,121.789 593.675,118.122 594.5,114.5C 595.493,119.12 595.827,123.786 595.5,128.5C 594.178,128.67 593.011,128.337 592,127.5C 590,124.167 588,120.833 586,117.5C 585.825,121.211 585.325,124.878 584.5,128.5C 583.507,123.88 583.173,119.214 583.5,114.5 Z"/></g>
<g><path style="opacity:1" fill="#69d1f5" d="M 205.5,113.5 C 208.588,113.377 211.255,114.377 213.5,116.5C 213.167,116.833 212.833,117.167 212.5,117.5C 205.295,114.197 202.128,116.531 203,124.5C 206.865,127.398 210.365,127.065 213.5,123.5C 214.188,125.718 213.188,127.218 210.5,128C 203.333,128.833 200.167,125.667 201,118.5C 202.025,116.313 203.525,114.646 205.5,113.5 Z"/></g>
<g><path style="opacity:1" fill="#60cff5" d="M 440.5,114.5 C 441.675,114.281 442.675,114.614 443.5,115.5C 444.903,118.875 446.403,122.209 448,125.5C 449.597,122.209 451.097,118.875 452.5,115.5C 453.325,114.614 454.325,114.281 455.5,114.5C 455.827,119.214 455.493,123.88 454.5,128.5C 453.676,125.215 453.176,121.882 453,118.5C 451.533,121.758 450.367,125.092 449.5,128.5C 448.5,128.5 447.5,128.5 446.5,128.5C 445.633,125.092 444.467,121.758 443,118.5C 442.824,121.882 442.324,125.215 441.5,128.5C 440.507,123.88 440.173,119.214 440.5,114.5 Z"/></g>
<g><path style="opacity:1" fill="#d6f2fc" d="M 152.5,119.5 C 142.652,119.173 132.986,119.506 123.5,120.5C 122.711,120.217 122.044,119.717 121.5,119C 132.008,118.175 142.342,118.341 152.5,119.5 Z"/></g>
<g><path style="opacity:1" fill="#6ed2f5" d="M 398.5,113.5 C 401.463,113.151 403.796,114.151 405.5,116.5C 405.333,116.833 405.167,117.167 405,117.5C 398.14,113.699 394.807,115.699 395,123.5C 396.255,125.594 398.088,126.594 400.5,126.5C 402.658,126.079 404.658,125.579 406.5,125C 401.434,129.907 396.934,129.407 393,123.5C 392.477,118.88 394.31,115.547 398.5,113.5 Z"/></g>
<g><path style="opacity:1" fill="#73d6f6" d="M 47.5,119.5 C 47.1698,138.008 47.5032,156.341 48.5,174.5C 48.2172,175.289 47.7172,175.956 47,176.5C 46.1711,157.329 46.3377,138.329 47.5,119.5 Z"/></g>
<g><path style="opacity:1" fill="#3cc5f3" d="M 47.5,119.5 C 56.1922,119.169 64.8589,119.502 73.5,120.5C 72.8728,121.417 72.5394,122.417 72.5,123.5C 64.5337,140.102 56.5337,156.769 48.5,173.5C 48.5,173.833 48.5,174.167 48.5,174.5C 47.5032,156.341 47.1698,138.008 47.5,119.5 Z"/></g>
<g><path style="opacity:1" fill="#42c6f3" d="M 123.5,120.5 C 132.986,119.506 142.652,119.173 152.5,119.5C 156.806,124.473 161.473,129.14 166.5,133.5C 169.332,136.501 171.998,139.667 174.5,143C 174.167,143.167 173.833,143.333 173.5,143.5C 158.145,136.488 142.812,129.488 127.5,122.5C 126.329,121.655 124.995,120.989 123.5,120.5 Z"/></g>
<g><path style="opacity:1" fill="#64cff5" d="M 564.5,113.5 C 572.357,114.165 575.19,118.165 573,125.5C 568.291,129.769 563.958,129.436 560,124.5C 558.776,119.626 560.276,115.959 564.5,113.5 Z"/></g>
<g><path style="opacity:1" fill="#fafdfe" d="M 564.5,115.5 C 571.693,115.897 573.693,119.231 570.5,125.5C 563.55,128.046 560.717,125.713 562,118.5C 562.698,117.309 563.531,116.309 564.5,115.5 Z"/></g>
<g><path style="opacity:1" fill="#caeffc" d="M 119.5,120.5 C 118.507,128.984 118.174,137.651 118.5,146.5C 118.5,146.833 118.5,147.167 118.5,147.5C 117.178,138.325 117.178,128.992 118.5,119.5C 119.107,119.624 119.44,119.957 119.5,120.5 Z"/></g>
<g><path style="opacity:1" fill="#3cc5f3" d="M 119.5,120.5 C 121.05,121.441 122.716,122.107 124.5,122.5C 140.648,130.406 156.981,138.072 173.5,145.5C 155.341,146.497 137.008,146.83 118.5,146.5C 118.174,137.651 118.507,128.984 119.5,120.5 Z"/></g>
<g><path style="opacity:1" fill="#5ecef4" d="M 247.5,114.5 C 250.187,114.336 252.854,114.503 255.5,115C 258.167,117.333 258.167,119.667 255.5,122C 257.378,123.993 257.712,126.159 256.5,128.5C 255.822,123.819 253.155,121.819 248.5,122.5C 248.662,124.527 248.495,126.527 248,128.5C 247.501,123.845 247.334,119.179 247.5,114.5 Z"/></g>
<g><path style="opacity:1" fill="#f1fbfe" d="M 248.5,115.5 C 250.527,115.338 252.527,115.505 254.5,116C 255.833,117.333 255.833,118.667 254.5,120C 252.527,120.495 250.527,120.662 248.5,120.5C 248.5,118.833 248.5,117.167 248.5,115.5 Z"/></g>
<g><path style="opacity:1" fill="#a3e3f9" d="M 274.5,120.5 C 275.043,120.56 275.376,120.893 275.5,121.5C 273.604,122.466 271.604,122.799 269.5,122.5C 269.5,123.833 269.5,125.167 269.5,126.5C 268.549,125.081 268.216,123.415 268.5,121.5C 270.735,121.795 272.735,121.461 274.5,120.5 Z"/></g>
<g><path style="opacity:1" fill="#57ccf4" d="M 349.5,114.5 C 353.172,116.599 353.506,119.265 350.5,122.5C 352.447,124.276 352.78,126.276 351.5,128.5C 350.822,123.819 348.155,121.819 343.5,122.5C 343.795,124.735 343.461,126.735 342.5,128.5C 342.5,123.833 342.5,119.167 342.5,114.5C 344.833,114.5 347.167,114.5 349.5,114.5 Z"/></g>
<g><path style="opacity:1" fill="#f5fbfe" d="M 343.5,115.5 C 345.527,115.338 347.527,115.505 349.5,116C 350.833,117.333 350.833,118.667 349.5,120C 347.527,120.495 345.527,120.662 343.5,120.5C 343.5,118.833 343.5,117.167 343.5,115.5 Z"/></g>
<g><path style="opacity:1" fill="#9de2f9" d="M 369.5,120.5 C 370.043,120.56 370.376,120.893 370.5,121.5C 368.257,122.474 365.924,122.808 363.5,122.5C 365.5,121.833 367.5,121.167 369.5,120.5 Z"/></g>
<g><path style="opacity:1" fill="#67d0f5" d="M 421.5,113.5 C 428.368,113.53 431.535,116.864 431,123.5C 426.748,129.653 422.081,129.986 417,124.5C 415.776,119.626 417.276,115.959 421.5,113.5 Z"/></g>
<g><path style="opacity:1" fill="#fafdfe" d="M 421.5,115.5 C 429.241,115.738 431.241,119.238 427.5,126C 418.051,126.866 416.051,123.366 421.5,115.5 Z"/></g>
<g><path style="opacity:1" fill="#5dcef4" d="M 464.5,114.5 C 467.518,114.335 470.518,114.502 473.5,115C 476.265,117.966 475.932,120.633 472.5,123C 470.527,123.495 468.527,123.662 466.5,123.5C 466.785,125.288 466.452,126.955 465.5,128.5C 464.507,123.88 464.173,119.214 464.5,114.5 Z"/></g>
<g><path style="opacity:1" fill="#f4fbfe" d="M 466.5,115.5 C 468.527,115.338 470.527,115.505 472.5,116C 473.833,117.667 473.833,119.333 472.5,121C 470.527,121.495 468.527,121.662 466.5,121.5C 466.5,119.5 466.5,117.5 466.5,115.5 Z"/></g>
<g><path style="opacity:1" fill="#60cef5" d="M 489.5,114.5 C 490.978,114.238 492.311,114.571 493.5,115.5C 495.167,119.5 496.833,123.5 498.5,127.5C 496.117,128.462 495.117,127.462 495.5,124.5C 492.833,124.5 490.167,124.5 487.5,124.5C 487.934,127.166 486.934,128.333 484.5,128C 486.664,123.674 488.331,119.174 489.5,114.5 Z"/></g>
<g><path style="opacity:1" fill="#edf9fe" d="M 490.5,117.5 C 492.513,118.475 493.846,120.142 494.5,122.5C 492.5,123.833 490.5,123.833 488.5,122.5C 489.456,120.925 490.123,119.258 490.5,117.5 Z"/></g>
<g><path style="opacity:1" fill="#6ad1f5" d="M 511.5,113.5 C 513.722,113.178 515.556,113.845 517,115.5C 517.688,116.332 517.521,116.998 516.5,117.5C 514.073,114.71 512.073,114.876 510.5,118C 512.45,119.884 514.784,121.218 517.5,122C 518.799,127.689 516.466,129.689 510.5,128C 507.801,125.457 507.801,124.79 510.5,126C 512.473,126.495 514.473,126.662 516.5,126.5C 516.649,125.448 516.483,124.448 516,123.5C 512.603,122.734 510.103,120.901 508.5,118C 508.557,115.791 509.557,114.291 511.5,113.5 Z"/></g>
<g><path style="opacity:1" fill="#5dcdf4" d="M 229.5,114.5 C 230.675,114.281 231.675,114.614 232.5,115.5C 234.851,119.779 236.185,124.112 236.5,128.5C 234.508,124.995 231.508,123.829 227.5,125C 226.929,126.205 226.262,127.372 225.5,128.5C 225.167,128 224.833,127.5 224.5,127C 226.077,122.765 227.743,118.598 229.5,114.5 Z"/></g>
<g><path style="opacity:1" fill="#f0fafe" d="M 230.5,116.5 C 231.864,118.22 232.864,120.22 233.5,122.5C 231.955,123.452 230.288,123.785 228.5,123.5C 228.878,121.079 229.545,118.746 230.5,116.5 Z"/></g>
<g><path style="opacity:1" fill="#43c6f2" d="M 69.5,158.5 C 63.5035,164.329 57.3368,169.996 51,175.5C 50.8333,175.167 50.6667,174.833 50.5,174.5C 58.1808,157.807 65.8475,141.141 73.5,124.5C 74.6541,133.754 74.8208,143.754 74,154.5C 72.6288,156.041 71.1288,157.375 69.5,158.5 Z"/></g>
<g><path style="opacity:1" fill="#6cd1f5" d="M 303.5,113.5 C 306.463,113.151 308.796,114.151 310.5,116.5C 310.333,116.833 310.167,117.167 310,117.5C 302.563,114.055 299.563,116.389 301,124.5C 304.13,127.122 307.297,127.122 310.5,124.5C 311.571,126.325 310.904,127.492 308.5,128C 300.212,129.291 297.045,125.791 299,117.5C 300.397,115.93 301.897,114.596 303.5,113.5 Z"/></g>
<g><path style="opacity:1" fill="#5bcef4" d="M 321.5,114.5 C 323.26,117.701 324.094,121.367 324,125.5C 326,126.833 328,126.833 330,125.5C 331.331,110.833 331.997,110.833 332,125.5C 328.667,129.5 325.333,129.5 322,125.5C 321.501,121.848 321.335,118.182 321.5,114.5 Z"/></g>
<g><path style="opacity:1" fill="#58cdf4" d="M 274.5,120.5 C 272.735,121.461 270.735,121.795 268.5,121.5C 268.216,123.415 268.549,125.081 269.5,126.5C 272.247,126.187 274.914,126.52 277.5,127.5C 274.232,128.487 270.898,128.82 267.5,128.5C 267.5,123.833 267.5,119.167 267.5,114.5C 270.85,114.335 274.183,114.502 277.5,115C 274.518,115.498 271.518,115.665 268.5,115.5C 268.5,117.167 268.5,118.833 268.5,120.5C 270.5,120.5 272.5,120.5 274.5,120.5 Z"/></g>
<g><path style="opacity:1" fill="#60cff5" d="M 286.5,126.5 C 288.337,126.639 288.67,127.306 287.5,128.5C 286.702,128.043 286.369,127.376 286.5,126.5 Z"/></g>
<g><path style="opacity:1" fill="#58cdf4" d="M 371.5,115.5 C 368.833,115.5 366.167,115.5 363.5,115.5C 363.5,117.167 363.5,118.833 363.5,120.5C 365.5,120.5 367.5,120.5 369.5,120.5C 367.5,121.167 365.5,121.833 363.5,122.5C 363.5,123.833 363.5,125.167 363.5,126.5C 366.572,126.183 369.572,126.516 372.5,127.5C 369.232,128.487 365.898,128.82 362.5,128.5C 362.5,123.833 362.5,119.167 362.5,114.5C 365.713,114.19 368.713,114.523 371.5,115.5 Z"/></g>
<g><path style="opacity:1" fill="#61d0f5" d="M 381.5,126.5 C 383.337,126.639 383.67,127.306 382.5,128.5C 381.702,128.043 381.369,127.376 381.5,126.5 Z"/></g>
<g><path style="opacity:1" fill="#eefafe" d="M 124.5,122.5 C 125.5,122.5 126.5,122.5 127.5,122.5C 142.812,129.488 158.145,136.488 173.5,143.5C 173.833,143.333 174.167,143.167 174.5,143C 171.998,139.667 169.332,136.501 166.5,133.5C 166.833,133.5 167.167,133.5 167.5,133.5C 170.167,135.833 172.833,138.167 175.5,140.5C 176.014,141.625 176.347,142.791 176.5,144C 175.263,144.232 174.263,144.732 173.5,145.5C 156.981,138.072 140.648,130.406 124.5,122.5 Z"/></g>
<g><path style="opacity:1" fill="#88dcf8" d="M 173.5,145.5 C 174.289,145.783 174.956,146.283 175.5,147C 156.503,147.5 137.503,147.667 118.5,147.5C 118.5,147.167 118.5,146.833 118.5,146.5C 137.008,146.83 155.341,146.497 173.5,145.5 Z"/></g>
<g><path style="opacity:1" fill="#a5e0f3" d="M 75.5,155.5 C 82.6476,154.508 89.9809,154.175 97.5,154.5C 97.1667,155.5 96.5,156.167 95.5,156.5C 89.021,155.509 82.3543,155.176 75.5,155.5 Z"/></g>
<g><path style="opacity:1" fill="#ededed" d="M 152.5,154.5 C 156.088,155.029 159.588,155.029 163,154.5C 164.895,154.615 166.562,155.282 168,156.5C 169.404,162.044 169.904,167.71 169.5,173.5C 167.167,173.5 164.833,173.5 162.5,173.5C 162.334,169.154 162.501,164.821 163,160.5C 164.424,164.297 164.924,168.297 164.5,172.5C 165.833,172.5 167.167,172.5 168.5,172.5C 168.888,167.372 168.388,162.372 167,157.5C 163.729,154.803 160.729,155.136 158,158.5C 157.517,157.552 157.351,156.552 157.5,155.5C 156.167,155.5 154.833,155.5 153.5,155.5C 153.5,161.167 153.5,166.833 153.5,172.5C 154.833,172.5 156.167,172.5 157.5,172.5C 157.076,168.297 157.576,164.297 159,160.5C 159.499,164.821 159.666,169.154 159.5,173.5C 157.167,173.5 154.833,173.5 152.5,173.5C 152.5,167.167 152.5,160.833 152.5,154.5 Z"/></g>
<g><path style="opacity:1" fill="#f7f7f7" d="M 185.5,154.5 C 191.345,153.668 195.179,156.001 197,161.5C 200.614,153.89 205.947,152.557 213,157.5C 213.862,159.087 214.529,160.754 215,162.5C 215.497,159.854 215.664,157.187 215.5,154.5C 219.153,154.877 222.653,154.877 226,154.5C 227.895,154.615 229.562,155.282 231,156.5C 234.619,153.657 237.952,153.99 241,157.5C 241.499,162.823 241.666,168.156 241.5,173.5C 239.167,173.5 236.833,173.5 234.5,173.5C 233.833,156.167 233.167,156.167 232.5,173.5C 230.167,173.5 227.833,173.5 225.5,173.5C 225.5,169.167 225.5,164.833 225.5,160.5C 224.5,160.5 223.5,160.5 222.5,160.5C 222.5,164.833 222.5,169.167 222.5,173.5C 220.167,173.5 217.833,173.5 215.5,173.5C 215.663,171.143 215.497,168.81 215,166.5C 212.747,173.106 208.247,175.273 201.5,173C 199.622,171.457 198.122,169.624 197,167.5C 195.013,171.367 194.513,171.367 195.5,167.5C 194.833,167.167 194.167,166.833 193.5,166.5C 191.595,167.065 189.929,168.065 188.5,169.5C 184.182,167.078 183.516,163.911 186.5,160C 189.076,159.394 191.41,159.894 193.5,161.5C 194.167,161.167 194.833,160.833 195.5,160.5C 194.687,159.186 193.687,158.019 192.5,157C 189.5,156.667 186.5,156.333 183.5,156C 184.416,155.722 185.082,155.222 185.5,154.5 Z"/></g>
<g><path style="opacity:1" fill="#ebebeb" d="M 540.5,154.5 C 544.153,154.877 547.653,154.877 551,154.5C 552.404,154.509 553.57,155.009 554.5,156C 551.374,155.37 548.541,156.204 546,158.5C 544.951,156.893 543.451,156.227 541.5,156.5C 541.5,161.833 541.5,167.167 541.5,172.5C 543.167,172.5 544.833,172.5 546.5,172.5C 546.334,168.486 546.501,164.486 547,160.5C 547.499,164.821 547.666,169.154 547.5,173.5C 545.167,173.5 542.833,173.5 540.5,173.5C 540.5,167.167 540.5,160.833 540.5,154.5 Z"/></g>
<g><path style="opacity:1" fill="#f6f6f6" d="M 67.5,170.5 C 76.5157,165.325 85.849,160.659 95.5,156.5C 96.5,156.167 97.1667,155.5 97.5,154.5C 101.585,154.459 104.752,156.125 107,159.5C 109.987,154.848 114.154,153.348 119.5,155C 121.667,155.833 123.167,157.333 124,159.5C 124.311,157.444 124.811,155.444 125.5,153.5C 124.089,151.983 124.256,150.649 126,149.5C 126.49,150.793 126.657,152.127 126.5,153.5C 130.717,153.215 132.883,155.215 133,159.5C 133.948,157.43 135.448,155.93 137.5,155C 141.794,155.55 146.128,155.383 150.5,154.5C 150.666,161.841 150.5,169.174 150,176.5C 144.667,180.5 139.333,180.5 134,176.5C 133.51,175.207 133.343,173.873 133.5,172.5C 134.552,172.649 135.552,172.483 136.5,172C 135,171.167 133.833,170 133,168.5C 132.727,170.101 132.227,171.601 131.5,173C 129.19,173.497 126.857,173.663 124.5,173.5C 124.657,172.127 124.49,170.793 124,169.5C 123.5,171.333 122.333,172.5 120.5,173C 117.5,173.667 114.5,173.667 111.5,173C 109.697,172.363 108.364,171.197 107.5,169.5C 102.369,174.312 97.0361,174.645 91.5,170.5C 90.2081,168.333 89.3747,166 89,163.5C 88.7277,168.438 86.2277,171.604 81.5,173C 77.1794,173.499 72.8461,173.666 68.5,173.5C 68.7373,172.209 68.404,171.209 67.5,170.5 Z"/></g>
<g><path style="opacity:1" fill="#48c6f0" d="M 75.5,155.5 C 82.3543,155.176 89.021,155.509 95.5,156.5C 85.849,160.659 76.5157,165.325 67.5,170.5C 63.0424,172.229 58.7091,174.229 54.5,176.5C 54.0618,176.565 53.7284,176.399 53.5,176C 59.3367,171.33 64.67,166.163 69.5,160.5C 71.5,158.833 73.5,157.167 75.5,155.5 Z"/></g>
<g><path style="opacity:1" fill="#ecf9fd" d="M 72.5,123.5 C 72.5,124.167 72.8333,124.5 73.5,124.5C 65.8475,141.141 58.1808,157.807 50.5,174.5C 50.6667,174.833 50.8333,175.167 51,175.5C 57.3368,169.996 63.5035,164.329 69.5,158.5C 69.5,159.167 69.5,159.833 69.5,160.5C 64.67,166.163 59.3367,171.33 53.5,176C 53.7284,176.399 54.0618,176.565 54.5,176.5C 53.02,178.603 51.8534,178.603 51,176.5C 50.586,176.957 50.086,177.291 49.5,177.5C 49.5236,176.214 49.1903,174.88 48.5,173.5C 56.5337,156.769 64.5337,140.102 72.5,123.5 Z"/></g>
<g><path style="opacity:1" fill="#efefef" d="M 450.5,148.5 C 452.199,148.34 453.866,148.506 455.5,149C 456.059,149.725 456.392,150.558 456.5,151.5C 456.378,158.672 456.378,166.005 456.5,173.5C 454.167,173.5 451.833,173.5 449.5,173.5C 448.068,171.425 447.234,168.425 447,164.5C 443.899,163.533 441.066,162.2 438.5,160.5C 438.887,159.28 439.72,158.613 441,158.5C 442.974,160.372 445.141,160.705 447.5,159.5C 444.631,155.367 440.964,154.533 436.5,157C 434.352,159.075 434.018,161.408 435.5,164C 437.715,165.044 440.048,165.71 442.5,166C 443.851,168.125 443.185,169.292 440.5,169.5C 438.348,167.931 436.014,167.431 433.5,168C 436.046,171.823 439.713,173.49 444.5,173C 439.063,174.655 434.897,173.155 432,168.5C 431.215,170.286 430.049,171.786 428.5,173C 424.705,173.837 421.039,173.504 417.5,172C 416.549,171.282 416.383,170.449 417,169.5C 421.876,173.713 426.376,173.379 430.5,168.5C 427.167,167.833 423.833,167.167 420.5,166.5C 424.107,165.511 427.774,165.177 431.5,165.5C 431.613,162.951 430.946,160.618 429.5,158.5C 429.667,158.167 429.833,157.833 430,157.5C 430.915,158.328 431.581,159.328 432,160.5C 434.451,154.911 438.617,153.078 444.5,155C 446.667,155.833 448.167,157.333 449,159.5C 450.256,155.771 450.756,152.104 450.5,148.5 Z"/></g>
</svg>
